<svg xmlns="http://www.w3.org/2000/svg" xmlns:xlink="http://www.w3.org/1999/xlink"><polygon points="0,200 0,100 1,101 2,102 3,101 4,102 5,101 6,100 7,101 8,102 9,103 10,102 11,103 12,102 13,103 14,104 15,105 16,104 17,105 18,106 19,105 20,104 21,103 22,102 23,103 24,104 25,103 26,104 27,103 28,102 29,103 30,104 31,105 32,104 33,105 34,104 35,105 36,104 37,103 38,102 39,103 40,102 41,101 42,102 43,101 44,100 45,101 46,100 47,101 48,100 49,99 50,100 51,101 52,100 53,99 54,98 55,97 56,98 57,99 58,98 59,99 60,98 61,97 62,96 63,97 64,96 65,97 66,96 67,95 68,96 69,97 70,98 71,97 72,98 73,99 74,98 75,99 76,98 77,97 78,96 79,97 80,98 81,97 82,96 83,97 84,98 85,99 86,98 87,97 88,98 89,99 90,98 91,99 92,100 93,101 94,100 95,101 96,102 97,101 98,100 99,101 100,102 101,103 102,104 103,103 104,102 105,103 106,102 107,101 108,100 109,99 110,100 111,101 112,102 113,103 114,104 115,103 116,104 117,105 118,106 119,105 120,104 121,103 122,104 123,103 124,104 125,105 126,104 127,105 128,104 129,105 130,104 131,105 132,104 133,103 134,102 135,103 136,102 137,103 138,104 139,103 140,102 141,101 142,100 143,101 144,102 145,101 146,102 147,101 148,100 149,99 150,100 151,101 152,100 153,99 154,98 155,97 156,96 157,97 158,96 159,97 160,98 161,97 162,98 163,99 164,98 165,99 166,98 167,99 168,100 169,101 170,102 171,101 172,102 173,101 174,100 175,99 176,98 177,99 178,98 179,97 180,98 181,97 182,96 183,97 184,98 185,99 186,100 187,99 188,98 189,97 190,98 191,97 192,98 193,99 194,98 195,99 196,100 197,101 198,100 199,99 200,98 201,99 202,98 203,97 204,98 205,97 206,98 207,97 208,96 209,95 210,94 211,95 212,96 213,97 214,98 215,97 216,96 217,97 218,96 219,97 220,96 221,95 222,96 223,97 224,98 225,99 226,100 227,99 228,100 229,99 230,98 231,99 232,98 233,97 234,96 235,97 236,96 237,97 238,98 239,99 240,100 241,99 242,98 243,99 244,98 245,99 246,100 247,101 248,100 249,99 250,98 251,99 252,98 253,99 254,98 255,97 256,98 257,99 258,98 259,99 260,98 261,97 262,98 263,97 264,96 265,97 266,98 267,97 268,96 269,95 270,96 271,97 272,96 273,95 274,96 275,95 276,94 277,95 278,94 279,95 280,96 281,97 282,96 283,95 284,94 285,93 286,92 287,91 288,92 289,93 290,94 291,93 292,94 293,93 294,92 295,91 296,92 297,91 298,90 299,91 300,92 301,93 302,94 303,93 304,92 305,91 306,92 307,93 308,92 309,93 310,92 311,93 312,94 313,93 314,92 315,93 316,94 317,95 318,96 319,97 320,98 321,99 322,100 323,101 324,100 325,101 326,102 327,103 328,102 329,101 330,100 331,99 332,100 333,101 334,100 335,99 336,100 337,101 338,100 339,101 340,102 341,101 342,100 343,99 344,98 345,97 346,98 347,99 348,98 349,99 350,100 351,101 352,100 353,99 354,100 355,99 356,98 357,99 358,98 359,99 360,100 361,101 362,102 363,101 364,102 365,101 366,102 367,101 368,102 369,101 370,102 371,101 372,102 373,101 374,102 375,103 376,102 377,101 378,102 379,103 380,104 381,105 382,106 383,107 384,108 385,107 386,108 387,107 388,106 389,105 390,106 391,105 392,106 393,107 394,108 395,109 396,108 397,107 398,106 399,107 400,200 " style="fill:rgb(171,0,66);stroke:rgb(71,0,0)"></polygon><polygon points="0,200 0,100 1,101 2,102 3,103 4,102 5,101 6,100 7,101 8,102 9,103 10,102 11,101 12,100 13,99 14,98 15,97 16,98 17,99 18,98 19,99 20,100 21,101 22,100 23,99 24,98 25,99 26,100 27,99 28,98 29,97 30,96 31,97 32,98 33,97 34,96 35,95 36,94 37,95 38,96 39,95 40,96 41,97 42,96 43,95 44,96 45,97 46,96 47,95 48,96 49,97 50,98 51,99 52,98 53,99 54,98 55,99 56,100 57,101 58,100 59,99 60,100 61,99 62,98 63,99 64,98 65,97 66,96 67,97 68,96 69,97 70,98 71,97 72,96 73,95 74,96 75,97 76,96 77,95 78,96 79,95 80,94 81,95 82,94 83,95 84,94 85,93 86,92 87,91 88,92 89,93 90,94 91,95 92,96 93,95 94,96 95,95 96,94 97,95 98,94 99,93 100,94 101,93 102,92 103,91 104,90 105,91 106,92 107,93 108,92 109,93 110,94 111,95 112,94 113,93 114,94 115,93 116,94 117,95 118,96 119,97 120,96 121,97 122,96 123,95 124,96 125,97 126,96 127,95 128,94 129,95 130,96 131,95 132,94 133,93 134,94 135,95 136,96 137,95 138,94 139,93 140,92 141,91 142,90 143,89 144,88 145,89 146,90 147,91 148,90 149,89 150,88 151,89 152,88 153,89 154,88 155,87 156,88 157,89 158,90 159,89 160,88 161,89 162,90 163,89 164,88 165,89 166,88 167,87 168,88 169,87 170,86 171,85 172,86 173,85 174,84 175,85 176,86 177,85 178,84 179,83 180,82 181,83 182,84 183,85 184,86 185,85 186,84 187,85 188,84 189,83 190,82 191,83 192,82 193,83 194,82 195,81 196,82 197,83 198,84 199,85 200,84 201,85 202,84 203,85 204,86 205,85 206,86 207,87 208,88 209,89 210,90 211,91 212,92 213,93 214,94 215,95 216,96 217,97 218,96 219,97 220,96 221,97 222,96 223,95 224,96 225,97 226,98 227,97 228,98 229,97 230,98 231,97 232,96 233,97 234,96 235,95 236,94 237,93 238,94 239,95 240,94 241,95 242,96 243,95 244,96 245,95 246,96 247,97 248,98 249,97 250,96 251,97 252,98 253,99 254,98 255,97 256,96 257,95 258,96 259,97 260,98 261,99 262,100 263,101 264,100 265,99 266,98 267,99 268,100 269,101 270,102 271,103 272,104 273,103 274,104 275,103 276,104 277,103 278,104 279,103 280,104 281,105 282,106 283,105 284,104 285,103 286,102 287,101 288,102 289,103 290,102 291,101 292,102 293,101 294,102 295,103 296,102 297,101 298,102 299,103 300,104 301,103 302,104 303,105 304,106 305,105 306,104 307,103 308,102 309,103 310,104 311,105 312,106 313,107 314,106 315,105 316,104 317,103 318,102 319,103 320,104 321,103 322,104 323,105 324,104 325,105 326,106 327,107 328,108 329,109 330,108 331,107 332,106 333,107 334,106 335,107 336,106 337,107 338,108 339,109 340,108 341,109 342,108 343,107 344,106 345,107 346,108 347,109 348,108 349,107 350,108 351,109 352,110 353,111 354,110 355,111 356,110 357,111 358,110 359,111 360,110 361,109 362,110 363,109 364,108 365,107 366,106 367,105 368,104 369,105 370,104 371,105 372,106 373,105 374,104 375,105 376,106 377,107 378,106 379,105 380,104 381,105 382,104 383,103 384,104 385,105 386,106 387,105 388,106 389,107 390,108 391,107 392,108 393,109 394,110 395,111 396,110 397,111 398,112 399,113 400,200 " style="fill:rgb(190,140,129);stroke:rgb(90,40,29)"></polygon><polygon points="0,200 0,100 1,99 2,100 3,99 4,100 5,101 6,102 7,101 8,102 9,103 10,104 11,105 12,106 13,107 14,106 15,107 16,108 17,107 18,106 19,105 20,104 21,103 22,104 23,103 24,104 25,103 26,104 27,105 28,106 29,105 30,106 31,105 32,106 33,107 34,106 35,107 36,106 37,107 38,108 39,107 40,106 41,105 42,106 43,107 44,108 45,109 46,108 47,107 48,106 49,105 50,106 51,105 52,104 53,103 54,102 55,103 56,104 57,103 58,102 59,103 60,102 61,101 62,100 63,99 64,98 65,97 66,98 67,99 68,98 69,99 70,100 71,101 72,102 73,101 74,100 75,99 76,100 77,101 78,102 79,101 80,100 81,101 82,100 83,99 84,98 85,97 86,98 87,97 88,98 89,97 90,96 91,95 92,94 93,93 94,92 95,93 96,92 97,91 98,92 99,93 100,92 101,91 102,92 103,91 104,92 105,91 106,92 107,93 108,92 109,93 110,94 111,93 112,94 113,95 114,94 115,93 116,92 117,93 118,92 119,93 120,92 121,91 122,90 123,91 124,90 125,89 126,88 127,87 128,86 129,85 130,86 131,87 132,88 133,87 134,88 135,89 136,88 137,87 138,86 139,85 140,86 141,85 142,84 143,83 144,82 145,83 146,82 147,81 148,82 149,81 150,82 151,81 152,82 153,81 154,80 155,81 156,80 157,81 158,80 159,79 160,78 161,77 162,76 163,75 164,74 165,75 166,74 167,75 168,74 169,73 170,74 171,73 172,72 173,73 174,72 175,73 176,72 177,71 178,70 179,69 180,68 181,69 182,70 183,69 184,68 185,67 186,68 187,67 188,66 189,65 190,64 191,65 192,66 193,67 194,68 195,67 196,66 197,65 198,66 199,65 200,64 201,65 202,66 203,65 204,66 205,65 206,66 207,65 208,66 209,65 210,64 211,65 212,66 213,65 214,66 215,65 216,66 217,67 218,68 219,67 220,68 221,69 222,68 223,67 224,66 225,65 226,66 227,67 228,66 229,67 230,66 231,65 232,66 233,65 234,66 235,65 236,66 237,67 238,68 239,69 240,70 241,71 242,70 243,69 244,68 245,69 246,70 247,69 248,68 249,67 250,66 251,65 252,66 253,67 254,68 255,69 256,70 257,71 258,70 259,69 260,70 261,71 262,72 263,71 264,72 265,73 266,74 267,73 268,74 269,75 270,76 271,75 272,74 273,73 274,74 275,73 276,74 277,75 278,74 279,73 280,72 281,73 282,72 283,73 284,72 285,73 286,72 287,71 288,70 289,69 290,68 291,67 292,68 293,69 294,70 295,71 296,70 297,69 298,70 299,69 300,70 301,71 302,72 303,73 304,72 305,71 306,70 307,71 308,72 309,73 310,74 311,75 312,74 313,75 314,76 315,77 316,76 317,77 318,76 319,75 320,74 321,73 322,72 323,71 324,70 325,71 326,72 327,71 328,72 329,71 330,70 331,71 332,70 333,71 334,72 335,73 336,74 337,73 338,74 339,75 340,76 341,77 342,76 343,75 344,74 345,73 346,74 347,73 348,74 349,75 350,76 351,75 352,76 353,77 354,76 355,77 356,78 357,79 358,80 359,81 360,82 361,83 362,84 363,83 364,82 365,83 366,82 367,83 368,82 369,83 370,82 371,83 372,84 373,83 374,84 375,85 376,86 377,85 378,86 379,87 380,88 381,89 382,90 383,89 384,90 385,91 386,92 387,91 388,92 389,91 390,92 391,91 392,90 393,89 394,88 395,89 396,90 397,89 398,90 399,89 400,200 " style="fill:rgb(164,171,2);stroke:rgb(64,71,0)"></polygon><polygon points="0,200 0,100 1,99 2,98 3,97 4,98 5,99 6,100 7,101 8,100 9,101 10,100 11,99 12,98 13,97 14,96 15,95 16,96 17,95 18,96 19,95 20,94 21,95 22,96 23,95 24,96 25,95 26,94 27,93 28,92 29,91 30,90 31,89 32,90 33,89 34,88 35,89 36,90 37,89 38,88 39,89 40,90 41,91 42,92 43,91 44,90 45,91 46,92 47,91 48,90 49,91 50,92 51,91 52,90 53,91 54,92 55,91 56,90 57,91 58,92 59,91 60,92 61,91 62,92 63,93 64,92 65,91 66,92 67,91 68,90 69,91 70,90 71,89 72,88 73,87 74,86 75,87 76,88 77,87 78,86 79,85 80,86 81,85 82,86 83,87 84,88 85,89 86,90 87,91 88,92 89,93 90,92 91,91 92,90 93,91 94,90 95,91 96,90 97,89 98,90 99,91 100,92 101,91 102,90 103,91 104,90 105,91 106,92 107,91 108,90 109,89 110,90 111,89 112,90 113,91 114,92 115,93 116,92 117,93 118,94 119,95 120,96 121,97 122,98 123,97 124,98 125,97 126,98 127,97 128,98 129,99 130,98 131,99 132,98 133,99 134,100 135,99 136,98 137,97 138,96 139,95 140,96 141,95 142,94 143,95 144,94 145,95 146,94 147,93 148,92 149,93 150,94 151,95 152,96 153,97 154,98 155,99 156,98 157,97 158,98 159,97 160,98 161,99 162,98 163,99 164,98 165,97 166,98 167,99 168,98 169,99 170,98 171,99 172,100 173,99 174,98 175,97 176,98 177,99 178,98 179,99 180,100 181,99 182,98 183,97 184,98 185,97 186,96 187,97 188,96 189,95 190,94 191,93 192,92 193,91 194,92 195,93 196,94 197,93 198,92 199,91 200,90 201,91 202,90 203,91 204,92 205,91 206,90 207,91 208,92 209,93 210,94 211,95 212,96 213,97 214,98 215,99 216,100 217,99 218,98 219,97 220,96 221,97 222,96 223,95 224,94 225,93 226,92 227,91 228,92 229,91 230,92 231,91 232,90 233,89 234,88 235,89 236,90 237,91 238,90 239,89 240,90 241,91 242,90 243,89 244,90 245,89 246,88 247,89 248,88 249,89 250,90 251,91 252,90 253,91 254,92 255,91 256,92 257,93 258,92 259,93 260,92 261,91 262,92 263,91 264,92 265,91 266,90 267,91 268,92 269,91 270,92 271,91 272,90 273,89 274,88 275,87 276,86 277,87 278,86 279,87 280,88 281,87 282,88 283,89 284,88 285,89 286,90 287,91 288,90 289,91 290,92 291,91 292,90 293,91 294,90 295,91 296,90 297,91 298,92 299,91 300,90 301,91 302,92 303,91 304,92 305,93 306,92 307,91 308,90 309,91 310,90 311,89 312,88 313,87 314,86 315,85 316,86 317,87 318,86 319,85 320,86 321,87 322,88 323,89 324,90 325,89 326,88 327,89 328,88 329,89 330,88 331,89 332,88 333,87 334,86 335,85 336,86 337,85 338,84 339,85 340,86 341,87 342,86 343,85 344,86 345,87 346,88 347,87 348,86 349,87 350,88 351,89 352,88 353,89 354,90 355,89 356,88 357,89 358,88 359,87 360,88 361,87 362,88 363,87 364,88 365,87 366,88 367,87 368,86 369,87 370,86 371,87 372,86 373,87 374,86 375,85 376,86 377,87 378,86 379,87 380,88 381,87 382,88 383,89 384,88 385,87 386,86 387,85 388,86 389,85 390,84 391,85 392,86 393,87 394,88 395,89 396,90 397,91 398,92 399,93 400,200 " style="fill:rgb(208,120,172);stroke:rgb(108,20,72)"></polygon><polygon points="0,200 0,100 1,99 2,98 3,99 4,100 5,99 6,100 7,99 8,100 9,99 10,98 11,97 12,96 13,95 14,94 15,93 16,94 17,95 18,94 19,95 20,94 21,93 22,94 23,93 24,94 25,93 26,92 27,91 28,92 29,93 30,94 31,95 32,94 33,95 34,94 35,95 36,94 37,93 38,92 39,91 40,90 41,89 42,88 43,87 44,88 45,89 46,88 47,87 48,88 49,87 50,86 51,87 52,86 53,85 54,84 55,83 56,82 57,81 58,82 59,81 60,82 61,81 62,82 63,83 64,84 65,83 66,84 67,85 68,86 69,85 70,86 71,85 72,84 73,83 74,84 75,85 76,86 77,85 78,86 79,85 80,86 81,87 82,88 83,87 84,86 85,85 86,84 87,83 88,82 89,83 90,82 91,83 92,84 93,85 94,84 95,85 96,84 97,85 98,84 99,83 100,84 101,83 102,82 103,81 104,82 105,81 106,82 107,83 108,82 109,83 110,82 111,81 112,82 113,81 114,82 115,81 116,80 117,81 118,82 119,81 120,82 121,83 122,82 123,81 124,80 125,81 126,80 127,79 128,80 129,81 130,82 131,83 132,84 133,83 134,84 135,85 136,86 137,87 138,86 139,85 140,84 141,85 142,86 143,87 144,86 145,85 146,84 147,85 148,84 149,85 150,86 151,87 152,86 153,85 154,84 155,85 156,86 157,85 158,84 159,83 160,84 161,83 162,82 163,81 164,80 165,81 166,82 167,83 168,82 169,81 170,82 171,83 172,82 173,83 174,82 175,81 176,82 177,81 178,80 179,81 180,82 181,81 182,80 183,79 184,78 185,79 186,78 187,77 188,76 189,75 190,76 191,77 192,78 193,77 194,76 195,77 196,76 197,75 198,76 199,75 200,74 201,75 202,74 203,75 204,74 205,75 206,76 207,77 208,76 209,75 210,76 211,75 212,76 213,77 214,78 215,79 216,80 217,79 218,78 219,77 220,78 221,79 222,80 223,79 224,80 225,81 226,80 227,81 228,80 229,81 230,82 231,83 232,84 233,83 234,82 235,83 236,84 237,85 238,86 239,85 240,86 241,85 242,84 243,83 244,82 245,83 246,84 247,83 248,84 249,85 250,86 251,85 252,86 253,87 254,86 255,87 256,86 257,87 258,86 259,87 260,86 261,87 262,86 263,87 264,86 265,85 266,86 267,87 268,88 269,87 270,88 271,89 272,90 273,91 274,92 275,91 276,90 277,89 278,88 279,87 280,88 281,89 282,90 283,89 284,88 285,87 286,88 287,89 288,88 289,87 290,86 291,87 292,86 293,87 294,86 295,85 296,86 297,87 298,88 299,89 300,88 301,89 302,90 303,91 304,90 305,89 306,90 307,89 308,90 309,89 310,88 311,89 312,90 313,91 314,92 315,91 316,92 317,93 318,94 319,95 320,96 321,97 322,98 323,99 324,100 325,101 326,102 327,101 328,100 329,101 330,102 331,103 332,104 333,103 334,102 335,103 336,102 337,103 338,104 339,105 340,106 341,105 342,104 343,105 344,104 345,105 346,104 347,105 348,106 349,105 350,104 351,105 352,104 353,103 354,102 355,101 356,100 357,101 358,100 359,101 360,100 361,99 362,98 363,97 364,98 365,99 366,100 367,101 368,102 369,101 370,102 371,103 372,104 373,105 374,104 375,103 376,104 377,105 378,106 379,107 380,106 381,107 382,106 383,107 384,106 385,105 386,106 387,107 388,108 389,107 390,106 391,107 392,106 393,105 394,106 395,107 396,108 397,109 398,108 399,107 400,200 " style="fill:rgb(103,168,119);stroke:rgb(3,68,19)"></polygon><polygon points="0,200 0,100 1,101 2,100 3,99 4,98 5,99 6,98 7,97 8,98 9,97 10,96 11,97 12,98 13,99 14,98 15,97 16,96 17,95 18,94 19,93 20,94 21,93 22,92 23,93 24,92 25,93 26,92 27,91 28,90 29,89 30,88 31,87 32,86 33,85 34,86 35,87 36,88 37,89 38,88 39,87 40,88 41,89 42,90 43,91 44,92 45,91 46,92 47,91 48,92 49,93 50,94 51,95 52,94 53,95 54,94 55,95 56,96 57,95 58,96 59,97 60,96 61,95 62,96 63,97 64,96 65,97 66,96 67,97 68,96 69,95 70,96 71,97 72,98 73,97 74,96 75,97 76,96 77,95 78,96 79,95 80,96 81,95 82,94 83,95 84,96 85,95 86,96 87,97 88,98 89,97 90,98 91,97 92,96 93,97 94,98 95,97 96,98 97,97 98,98 99,99 100,98 101,97 102,98 103,97 104,96 105,95 106,96 107,95 108,94 109,93 110,94 111,93 112,92 113,91 114,92 115,91 116,92 117,91 118,92 119,91 120,90 121,89 122,88 123,87 124,88 125,89 126,90 127,91 128,92 129,91 130,92 131,93 132,94 133,95 134,96 135,95 136,94 137,93 138,94 139,93 140,94 141,95 142,96 143,97 144,96 145,97 146,98 147,97 148,98 149,97 150,98 151,99 152,98 153,97 154,96 155,97 156,96 157,95 158,96 159,97 160,96 161,97 162,98 163,99 164,100 165,99 166,98 167,97 168,98 169,99 170,100 171,101 172,100 173,101 174,102 175,103 176,102 177,101 178,102 179,103 180,104 181,103 182,102 183,101 184,102 185,103 186,102 187,103 188,104 189,103 190,102 191,103 192,104 193,103 194,104 195,103 196,104 197,103 198,102 199,103 200,104 201,105 202,106 203,105 204,106 205,105 206,104 207,103 208,102 209,103 210,104 211,105 212,106 213,107 214,106 215,105 216,106 217,105 218,104 219,103 220,102 221,101 222,100 223,101 224,102 225,101 226,102 227,101 228,100 229,101 230,102 231,103 232,102 233,101 234,102 235,101 236,102 237,103 238,104 239,105 240,106 241,105 242,106 243,107 244,106 245,107 246,108 247,107 248,106 249,107 250,106 251,105 252,104 253,103 254,104 255,105 256,104 257,103 258,102 259,103 260,104 261,105 262,104 263,103 264,102 265,103 266,102 267,103 268,102 269,103 270,102 271,103 272,102 273,101 274,100 275,101 276,100 277,99 278,100 279,99 280,98 281,97 282,98 283,99 284,98 285,99 286,100 287,101 288,102 289,103 290,102 291,103 292,104 293,105 294,106 295,107 296,106 297,107 298,108 299,109 300,108 301,107 302,108 303,109 304,110 305,109 306,110 307,111 308,110 309,109 310,108 311,107 312,106 313,107 314,106 315,105 316,104 317,103 318,102 319,101 320,100 321,99 322,100 323,99 324,100 325,99 326,100 327,101 328,100 329,99 330,98 331,99 332,100 333,99 334,100 335,99 336,98 337,97 338,96 339,95 340,96 341,97 342,96 343,95 344,96 345,97 346,98 347,99 348,98 349,99 350,98 351,99 352,100 353,99 354,100 355,99 356,98 357,97 358,98 359,97 360,96 361,95 362,96 363,95 364,96 365,95 366,96 367,97 368,98 369,99 370,100 371,101 372,100 373,101 374,100 375,101 376,102 377,103 378,104 379,105 380,106 381,105 382,104 383,105 384,106 385,107 386,106 387,105 388,104 389,105 390,106 391,105 392,106 393,105 394,106 395,105 396,104 397,105 398,106 399,107 400,200 " style="fill:rgb(73,252,62);stroke:rgb(0,152,0)"></polygon><polygon points="0,200 0,100 1,99 2,98 3,97 4,98 5,99 6,100 7,99 8,100 9,99 10,98 11,99 12,100 13,99 14,100 15,99 16,98 17,99 18,98 19,97 20,98 21,99 22,100 23,101 24,100 25,101 26,100 27,101 28,100 29,101 30,100 31,99 32,100 33,99 34,100 35,101 36,100 37,101 38,102 39,103 40,104 41,105 42,104 43,105 44,106 45,105 46,106 47,105 48,106 49,105 50,106 51,107 52,108 53,109 54,108 55,107 56,106 57,105 58,106 59,107 60,108 61,109 62,110 63,111 64,112 65,113 66,114 67,113 68,114 69,115 70,116 71,115 72,116 73,115 74,114 75,115 76,116 77,115 78,114 79,113 80,114 81,113 82,114 83,115 84,114 85,115 86,114 87,113 88,112 89,113 90,112 91,111 92,112 93,111 94,112 95,113 96,112 97,111 98,110 99,109 100,108 101,109 102,110 103,109 104,108 105,109 106,108 107,107 108,106 109,107 110,108 111,109 112,110 113,109 114,108 115,107 116,108 117,107 118,106 119,107 120,108 121,107 122,108 123,109 124,110 125,109 126,108 127,107 128,108 129,109 130,108 131,107 132,108 133,107 134,106 135,105 136,104 137,103 138,104 139,105 140,106 141,105 142,104 143,103 144,104 145,105 146,106 147,105 148,106 149,105 150,106 151,107 152,108 153,107 154,108 155,107 156,106 157,107 158,106 159,107 160,106 161,107 162,108 163,107 164,106 165,107 166,108 167,107 168,108 169,109 170,108 171,107 172,106 173,107 174,106 175,107 176,108 177,107 178,108 179,109 180,108 181,107 182,106 183,105 184,106 185,107 186,108 187,109 188,110 189,109 190,110 191,109 192,108 193,107 194,108 195,107 196,106 197,105 198,104 199,103 200,102 201,103 202,104 203,105 204,106 205,105 206,104 207,105 208,104 209,103 210,102 211,103 212,102 213,103 214,102 215,101 216,102 217,103 218,104 219,105 220,106 221,105 222,104 223,103 224,102 225,101 226,100 227,101 228,100 229,99 230,98 231,99 232,100 233,101 234,100 235,101 236,102 237,101 238,100 239,99 240,100 241,99 242,98 243,97 244,96 245,97 246,98 247,99 248,100 249,101 250,102 251,101 252,100 253,101 254,102 255,101 256,102 257,101 258,102 259,101 260,100 261,101 262,100 263,99 264,100 265,101 266,102 267,103 268,102 269,103 270,102 271,101 272,100 273,101 274,100 275,101 276,102 277,101 278,102 279,101 280,100 281,99 282,98 283,97 284,98 285,99 286,98 287,97 288,96 289,97 290,96 291,97 292,98 293,99 294,98 295,99 296,98 297,97 298,98 299,99 300,100 301,101 302,102 303,101 304,102 305,103 306,104 307,103 308,104 309,103 310,104 311,105 312,106 313,105 314,106 315,107 316,106 317,105 318,104 319,103 320,102 321,101 322,100 323,99 324,98 325,97 326,96 327,95 328,96 329,97 330,98 331,99 332,100 333,99 334,98 335,99 336,100 337,99 338,100 339,101 340,100 341,101 342,100 343,101 344,100 345,101 346,100 347,101 348,102 349,101 350,100 351,101 352,102 353,103 354,104 355,103 356,104 357,103 358,104 359,103 360,104 361,103 362,102 363,101 364,102 365,101 366,102 367,103 368,104 369,105 370,104 371,105 372,106 373,107 374,106 375,105 376,106 377,105 378,104 379,103 380,104 381,105 382,104 383,105 384,104 385,103 386,104 387,103 388,102 389,103 390,104 391,103 392,104 393,105 394,104 395,105 396,104 397,105 398,104 399,103 400,200 " style="fill:rgb(79,197,67);stroke:rgb(0,97,0)"></polygon><polygon points="0,200 0,100 1,99 2,98 3,99 4,98 5,99 6,100 7,101 8,100 9,101 10,100 11,101 12,102 13,101 14,100 15,101 16,100 17,99 18,98 19,97 20,96 21,97 22,96 23,97 24,96 25,95 26,94 27,95 28,94 29,95 30,96 31,95 32,96 33,95 34,96 35,97 36,98 37,99 38,98 39,99 40,100 41,101 42,100 43,101 44,102 45,101 46,100 47,101 48,102 49,101 50,100 51,101 52,100 53,99 54,98 55,99 56,100 57,99 58,100 59,99 60,98 61,97 62,96 63,95 64,96 65,95 66,96 67,97 68,98 69,99 70,98 71,97 72,96 73,95 74,96 75,95 76,96 77,97 78,98 79,99 80,98 81,99 82,100 83,99 84,98 85,99 86,100 87,99 88,100 89,99 90,100 91,99 92,98 93,97 94,96 95,95 96,94 97,95 98,94 99,95 100,96 101,95 102,94 103,93 104,92 105,93 106,94 107,93 108,94 109,93 110,94 111,95 112,94 113,95 114,94 115,93 116,92 117,93 118,94 119,93 120,94 121,93 122,94 123,93 124,92 125,91 126,92 127,93 128,92 129,91 130,92 131,91 132,90 133,89 134,88 135,89 136,88 137,89 138,90 139,89 140,88 141,89 142,90 143,89 144,88 145,89 146,90 147,89 148,90 149,91 150,92 151,91 152,92 153,91 154,92 155,93 156,94 157,93 158,94 159,95 160,94 161,95 162,94 163,95 164,94 165,95 166,94 167,93 168,92 169,93 170,94 171,95 172,94 173,93 174,92 175,93 176,92 177,93 178,92 179,91 180,90 181,91 182,90 183,89 184,90 185,91 186,92 187,93 188,92 189,93 190,92 191,91 192,92 193,91 194,92 195,91 196,92 197,93 198,92 199,91 200,90 201,91 202,90 203,89 204,90 205,89 206,90 207,89 208,90 209,89 210,88 211,87 212,88 213,89 214,88 215,89 216,88 217,87 218,86 219,85 220,86 221,85 222,84 223,85 224,86 225,85 226,86 227,85 228,84 229,83 230,84 231,83 232,84 233,85 234,86 235,87 236,86 237,85 238,86 239,87 240,86 241,85 242,84 243,85 244,84 245,83 246,84 247,83 248,82 249,81 250,82 251,81 252,80 253,81 254,80 255,81 256,80 257,79 258,80 259,81 260,80 261,79 262,78 263,79 264,78 265,79 266,78 267,77 268,76 269,75 270,76 271,75 272,76 273,77 274,76 275,77 276,78 277,77 278,76 279,77 280,78 281,79 282,78 283,79 284,78 285,77 286,76 287,75 288,76 289,75 290,76 291,77 292,78 293,77 294,78 295,77 296,78 297,77 298,78 299,79 300,80 301,81 302,80 303,79 304,78 305,79 306,78 307,77 308,78 309,79 310,78 311,77 312,78 313,79 314,80 315,81 316,82 317,81 318,80 319,79 320,80 321,79 322,78 323,79 324,80 325,79 326,80 327,79 328,78 329,79 330,80 331,81 332,82 333,81 334,80 335,79 336,80 337,79 338,80 339,79 340,80 341,81 342,82 343,81 344,80 345,81 346,82 347,81 348,82 349,81 350,82 351,81 352,80 353,81 354,82 355,81 356,82 357,81 358,82 359,83 360,82 361,81 362,82 363,83 364,82 365,83 366,84 367,83 368,84 369,83 370,82 371,83 372,84 373,83 374,84 375,85 376,84 377,83 378,84 379,85 380,84 381,83 382,82 383,83 384,82 385,81 386,80 387,79 388,78 389,79 390,80 391,79 392,78 393,77 394,78 395,79 396,78 397,77 398,76 399,77 400,200 " style="fill:rgb(251,109,8);stroke:rgb(151,9,0)"></polygon><polygon points="0,200 0,100 1,101 2,100 3,99 4,98 5,99 6,100 7,99 8,98 9,99 10,100 11,99 12,100 13,101 14,102 15,101 16,100 17,101 18,102 19,101 20,102 21,103 22,102 23,103 24,104 25,103 26,102 27,103 28,102 29,101 30,102 31,103 32,102 33,101 34,100 35,99 36,100 37,99 38,98 39,99 40,100 41,101 42,100 43,99 44,98 45,97 46,96 47,97 48,98 49,97 50,96 51,97 52,98 53,99 54,98 55,97 56,98 57,99 58,100 59,99 60,100 61,99 62,100 63,99 64,98 65,97 66,96 67,97 68,96 69,95 70,94 71,93 72,92 73,93 74,94 75,95 76,94 77,93 78,92 79,91 80,90 81,89 82,88 83,89 84,90 85,89 86,90 87,91 88,92 89,93 90,92 91,91 92,90 93,89 94,88 95,89 96,90 97,91 98,92 99,91 100,92 101,93 102,92 103,91 104,92 105,91 106,92 107,91 108,90 109,89 110,90 111,89 112,88 113,89 114,88 115,87 116,86 117,87 118,88 119,87 120,88 121,89 122,90 123,91 124,92 125,91 126,92 127,93 128,92 129,91 130,90 131,91 132,92 133,91 134,92 135,93 136,92 137,93 138,92 139,93 140,92 141,91 142,92 143,93 144,92 145,93 146,92 147,93 148,94 149,95 150,94 151,93 152,92 153,93 154,94 155,95 156,94 157,93 158,92 159,91 160,92 161,91 162,90 163,89 164,90 165,89 166,90 167,91 168,90 169,91 170,90 171,89 172,88 173,89 174,88 175,89 176,88 177,87 178,88 179,89 180,88 181,87 182,86 183,85 184,86 185,85 186,86 187,85 188,86 189,87 190,88 191,87 192,86 193,85 194,86 195,85 196,86 197,85 198,84 199,85 200,84 201,83 202,82 203,81 204,82 205,81 206,80 207,81 208,82 209,81 210,82 211,81 212,82 213,81 214,80 215,79 216,78 217,79 218,80 219,79 220,80 221,79 222,78 223,79 224,78 225,79 226,80 227,81 228,82 229,83 230,84 231,85 232,84 233,85 234,86 235,85 236,84 237,85 238,86 239,85 240,86 241,85 242,84 243,83 244,82 245,81 246,80 247,81 248,82 249,81 250,80 251,79 252,80 253,81 254,80 255,81 256,82 257,81 258,82 259,83 260,82 261,81 262,80 263,79 264,78 265,77 266,78 267,77 268,78 269,77 270,78 271,77 272,76 273,75 274,76 275,75 276,74 277,73 278,72 279,73 280,72 281,73 282,74 283,73 284,74 285,73 286,72 287,71 288,72 289,71 290,72 291,71 292,72 293,71 294,70 295,71 296,72 297,71 298,70 299,69 300,68 301,69 302,70 303,71 304,72 305,73 306,74 307,75 308,74 309,75 310,76 311,75 312,74 313,75 314,74 315,75 316,74 317,73 318,74 319,75 320,74 321,75 322,74 323,73 324,72 325,73 326,72 327,71 328,70 329,71 330,72 331,73 332,72 333,73 334,72 335,71 336,72 337,71 338,72 339,71 340,70 341,69 342,68 343,69 344,68 345,69 346,70 347,71 348,72 349,71 350,72 351,71 352,70 353,69 354,70 355,71 356,72 357,71 358,70 359,71 360,72 361,73 362,74 363,73 364,72 365,73 366,72 367,71 368,70 369,71 370,70 371,69 372,70 373,71 374,72 375,73 376,72 377,73 378,72 379,71 380,70 381,69 382,68 383,67 384,68 385,69 386,68 387,67 388,68 389,69 390,68 391,69 392,68 393,69 394,68 395,69 396,68 397,69 398,68 399,69 400,200 " style="fill:rgb(143,192,3);stroke:rgb(43,92,0)"></polygon><polygon points="0,200 0,100 1,101 2,102 3,103 4,104 5,103 6,104 7,105 8,104 9,105 10,106 11,105 12,104 13,105 14,106 15,105 16,104 17,105 18,106 19,105 20,104 21,103 22,102 23,101 24,100 25,99 26,100 27,101 28,102 29,103 30,104 31,103 32,102 33,103 34,104 35,105 36,104 37,103 38,104 39,103 40,104 41,103 42,104 43,105 44,104 45,105 46,106 47,105 48,104 49,103 50,104 51,103 52,104 53,103 54,102 55,103 56,104 57,103 58,104 59,105 60,106 61,105 62,106 63,107 64,108 65,109 66,110 67,109 68,110 69,109 70,110 71,109 72,108 73,107 74,106 75,107 76,106 77,105 78,106 79,107 80,106 81,107 82,108 83,107 84,106 85,107 86,106 87,105 88,104 89,105 90,104 91,103 92,104 93,105 94,106 95,107 96,108 97,109 98,110 99,109 100,108 101,109 102,110 103,109 104,110 105,109 106,108 107,109 108,108 109,109 110,110 111,111 112,110 113,109 114,108 115,107 116,108 117,109 118,108 119,109 120,110 121,109 122,108 123,109 124,110 125,109 126,110 127,111 128,110 129,111 130,110 131,111 132,112 133,111 134,112 135,113 136,112 137,111 138,112 139,113 140,112 141,113 142,114 143,113 144,114 145,113 146,112 147,113 148,112 149,111 150,110 151,111 152,110 153,111 154,112 155,111 156,110 157,111 158,112 159,111 160,110 161,109 162,110 163,111 164,112 165,113 166,114 167,115 168,114 169,113 170,112 171,113 172,114 173,115 174,114 175,115 176,116 177,115 178,116 179,115 180,114 181,115 182,116 183,115 184,114 185,113 186,112 187,113 188,114 189,115 190,114 191,115 192,116 193,117 194,116 195,117 196,116 197,115 198,114 199,113 200,112 201,111 202,112 203,111 204,110 205,109 206,108 207,109 208,108 209,107 210,108 211,109 212,108 213,109 214,108 215,107 216,106 217,105 218,104 219,105 220,104 221,105 222,106 223,107 224,106 225,105 226,106 227,107 228,106 229,107 230,108 231,109 232,108 233,109 234,110 235,111 236,112 237,113 238,114 239,113 240,114 241,113 242,112 243,111 244,110 245,109 246,110 247,109 248,108 249,107 250,108 251,109 252,110 253,111 254,110 255,109 256,108 257,107 258,108 259,107 260,108 261,109 262,108 263,107 264,106 265,105 266,104 267,103 268,102 269,103 270,104 271,103 272,104 273,105 274,104 275,103 276,104 277,103 278,102 279,103 280,104 281,103 282,104 283,105 284,106 285,105 286,106 287,107 288,108 289,109 290,110 291,109 292,110 293,111 294,110 295,109 296,110 297,111 298,110 299,111 300,110 301,109 302,108 303,107 304,106 305,105 306,104 307,103 308,104 309,103 310,102 311,103 312,102 313,101 314,100 315,101 316,100 317,99 318,100 319,99 320,100 321,101 322,102 323,103 324,102 325,103 326,102 327,103 328,104 329,105 330,106 331,105 332,104 333,103 334,102 335,101 336,100 337,101 338,102 339,101 340,100 341,101 342,102 343,101 344,102 345,103 346,102 347,101 348,100 349,101 350,102 351,103 352,104 353,105 354,104 355,105 356,106 357,105 358,106 359,107 360,108 361,109 362,110 363,109 364,108 365,107 366,106 367,107 368,108 369,107 370,108 371,107 372,108 373,109 374,108 375,109 376,108 377,107 378,108 379,109 380,110 381,109 382,110 383,111 384,112 385,111 386,110 387,109 388,110 389,111 390,110 391,109 392,108 393,109 394,108 395,107 396,106 397,105 398,104 399,103 400,200 " style="fill:rgb(64,109,97);stroke:rgb(0,9,0)"></polygon></svg>